<svg id="Layer_1" data-name="Layer 1" xmlns="http://www.w3.org/2000/svg" viewBox="0 0 371.93 124.72"><defs><style>.cls-1{fill:#231f20;fill-rule:evenodd;}</style></defs><title>Artboard 1</title><polygon class="cls-1" points="3.72 29.48 0 23.03 3.72 16.57 11.17 16.57 14.9 23.03 11.17 29.48 3.72 29.48"/><polygon class="cls-1" points="3.72 45.31 0 38.86 3.72 32.41 11.17 32.41 14.9 38.86 11.17 45.31 3.72 45.31"/><polygon class="cls-1" points="3.72 61.14 0 54.69 3.72 48.24 11.17 48.24 14.9 54.69 11.17 61.14 3.72 61.14"/><polygon class="cls-1" points="3.72 76.98 0 70.53 3.72 64.08 11.17 64.08 14.9 70.53 11.17 76.98 3.72 76.98"/><polygon class="cls-1" points="3.72 92.81 0 86.36 3.72 79.91 11.17 79.91 14.9 86.36 11.17 92.81 3.72 92.81"/><polygon class="cls-1" points="17.45 53.23 13.73 46.78 17.45 40.33 24.9 40.33 28.63 46.78 24.9 53.23 17.45 53.23"/><polygon class="cls-1" points="17.45 69.06 13.73 62.62 17.45 56.16 24.9 56.16 28.63 62.62 24.9 69.06 17.45 69.06"/><polygon class="cls-1" points="31.19 61.14 27.46 54.69 31.19 48.24 38.64 48.24 42.36 54.69 38.64 61.14 31.19 61.14"/><polygon class="cls-1" points="31.19 76.98 27.46 70.53 31.19 64.08 38.64 64.08 42.36 70.53 38.64 76.98 31.19 76.98"/><polygon class="cls-1" points="31.19 92.81 27.46 86.36 31.19 79.91 38.64 79.91 42.36 86.36 38.64 92.81 31.19 92.81"/><polygon class="cls-1" points="58.65 61.14 54.93 54.69 58.65 48.24 66.1 48.24 69.82 54.69 66.1 61.14 58.65 61.14"/><polygon class="cls-1" points="58.65 76.98 54.93 70.53 58.65 64.08 66.1 64.08 69.82 70.53 66.1 76.98 58.65 76.98"/><polygon class="cls-1" points="58.65 92.81 54.93 86.36 58.65 79.91 66.1 79.91 69.82 86.36 66.1 92.81 58.65 92.81"/><polygon class="cls-1" points="72.38 53.23 68.66 46.78 72.38 40.33 79.83 40.33 83.55 46.78 79.83 53.23 72.38 53.23"/><polygon class="cls-1" points="72.38 84.9 68.66 78.45 72.38 72 79.83 72 83.55 78.45 79.83 84.9 72.38 84.9"/><polygon class="cls-1" points="72.38 100.73 68.66 94.28 72.38 87.83 79.83 87.83 83.55 94.28 79.83 100.73 72.38 100.73"/><polygon class="cls-1" points="86.12 61.14 82.39 54.69 86.12 48.24 93.56 48.24 97.29 54.69 93.56 61.14 86.12 61.14"/><polygon class="cls-1" points="86.12 76.98 82.39 70.53 86.12 64.08 93.56 64.08 97.29 70.53 93.56 76.98 86.12 76.98"/><polygon class="cls-1" points="86.12 108.64 82.39 102.2 86.12 95.75 93.56 95.75 97.29 102.2 93.56 108.64 86.12 108.64"/><polygon class="cls-1" points="113.58 61.14 109.86 54.69 113.58 48.24 121.03 48.24 124.75 54.69 121.03 61.14 113.58 61.14"/><polygon class="cls-1" points="113.58 92.81 109.86 86.36 113.58 79.91 121.03 79.91 124.75 86.36 121.03 92.81 113.58 92.81"/><polygon class="cls-1" points="127.31 69.06 123.58 62.62 127.31 56.16 134.76 56.16 138.48 62.62 134.76 69.06 127.31 69.06"/><polygon class="cls-1" points="127.31 84.9 123.58 78.45 127.31 72 134.76 72 138.48 78.45 134.76 84.9 127.31 84.9"/><polygon class="cls-1" points="141.04 61.14 137.32 54.69 141.04 48.24 148.49 48.24 152.22 54.69 148.49 61.14 141.04 61.14"/><polygon class="cls-1" points="141.04 92.81 137.32 86.36 141.04 79.91 148.49 79.91 152.22 86.36 148.49 92.81 141.04 92.81"/><polygon class="cls-1" points="168.51 45.31 164.78 38.86 168.51 32.41 175.96 32.41 179.68 38.86 175.96 45.31 168.51 45.31"/><polygon class="cls-1" points="168.51 76.98 164.78 70.53 168.51 64.08 175.96 64.08 179.68 70.53 175.96 76.98 168.51 76.98"/><polygon class="cls-1" points="168.51 92.81 164.78 86.36 168.51 79.91 175.96 79.91 179.68 86.36 175.96 92.81 168.51 92.81"/><polygon class="cls-1" points="182.24 53.23 178.51 46.78 182.24 40.33 189.69 40.33 193.41 46.78 189.69 53.23 182.24 53.23"/><polygon class="cls-1" points="182.24 69.06 178.51 62.62 182.24 56.16 189.69 56.16 193.41 62.62 189.69 69.06 182.24 69.06"/><polygon class="cls-1" points="182.24 100.73 178.51 94.28 182.24 87.83 189.69 87.83 193.41 94.28 189.69 100.73 182.24 100.73"/><polygon class="cls-1" points="195.97 61.14 192.25 54.69 195.97 48.24 203.42 48.24 207.14 54.69 203.42 61.14 195.97 61.14"/><polygon class="cls-1" points="195.97 76.98 192.25 70.53 195.97 64.08 203.42 64.08 207.14 70.53 203.42 76.98 195.97 76.98"/><polygon class="cls-1" points="195.97 92.81 192.25 86.36 195.97 79.91 203.42 79.91 207.14 86.36 203.42 92.81 195.97 92.81"/><polygon class="cls-1" points="223.44 61.14 219.71 54.69 223.44 48.24 230.88 48.24 234.61 54.69 230.88 61.14 223.44 61.14"/><polygon class="cls-1" points="223.44 76.98 219.71 70.53 223.44 64.08 230.88 64.08 234.61 70.53 230.88 76.98 223.44 76.98"/><polygon class="cls-1" points="223.44 108.64 219.71 102.2 223.44 95.75 230.88 95.75 234.61 102.2 230.88 108.64 223.44 108.64"/><polygon class="cls-1" points="237.16 53.23 233.44 46.78 237.16 40.33 244.61 40.33 248.34 46.78 244.61 53.23 237.16 53.23"/><polygon class="cls-1" points="237.16 84.9 233.44 78.45 237.16 72 244.61 72 248.34 78.45 244.61 84.9 237.16 84.9"/><polygon class="cls-1" points="237.16 100.73 233.44 94.28 237.16 87.83 244.61 87.83 248.34 94.28 244.61 100.73 237.16 100.73"/><polygon class="cls-1" points="250.9 45.31 247.18 38.86 250.9 32.41 258.35 32.41 262.07 38.86 258.35 45.31 250.9 45.31"/><polygon class="cls-1" points="250.9 61.14 247.18 54.69 250.9 48.24 258.35 48.24 262.07 54.69 258.35 61.14 250.9 61.14"/><polygon class="cls-1" points="250.9 76.98 247.18 70.53 250.9 64.08 258.35 64.08 262.07 70.53 258.35 76.98 250.9 76.98"/><polygon class="cls-1" points="250.9 92.81 247.18 86.36 250.9 79.91 258.35 79.91 262.07 86.36 258.35 92.81 250.9 92.81"/><polygon class="cls-1" points="278.36 61.14 274.64 54.69 278.36 48.24 285.81 48.24 289.54 54.69 285.81 61.14 278.36 61.14"/><polygon class="cls-1" points="278.36 76.98 274.64 70.53 278.36 64.08 285.81 64.08 289.54 70.53 285.81 76.98 278.36 76.98"/><polygon class="cls-1" points="278.36 92.81 274.64 86.36 278.36 79.91 285.81 79.91 289.54 86.36 285.81 92.81 278.36 92.81"/><polygon class="cls-1" points="292.09 53.23 288.37 46.78 292.09 40.33 299.54 40.33 303.26 46.78 299.54 53.23 292.09 53.23"/><polygon class="cls-1" points="292.09 84.9 288.37 78.45 292.09 72 299.54 72 303.26 78.45 299.54 84.9 292.09 84.9"/><polygon class="cls-1" points="292.09 100.73 288.37 94.28 292.09 87.83 299.54 87.83 303.26 94.28 299.54 100.73 292.09 100.73"/><polygon class="cls-1" points="305.82 61.14 302.1 54.69 305.82 48.24 313.27 48.24 317 54.69 313.27 61.14 305.82 61.14"/><polygon class="cls-1" points="305.82 76.98 302.1 70.53 305.82 64.08 313.27 64.08 317 70.53 313.27 76.98 305.82 76.98"/><polygon class="cls-1" points="305.82 92.81 302.1 86.36 305.82 79.91 313.27 79.91 317 86.36 313.27 92.81 305.82 92.81"/><polygon class="cls-1" points="333.29 61.14 329.57 54.69 333.29 48.24 340.74 48.24 344.46 54.69 340.74 61.14 333.29 61.14"/><polygon class="cls-1" points="333.29 76.98 329.57 70.53 333.29 64.08 340.74 64.08 344.46 70.53 340.74 76.98 333.29 76.98"/><polygon class="cls-1" points="333.29 92.81 329.57 86.36 333.29 79.91 340.74 79.91 344.46 86.36 340.74 92.81 333.29 92.81"/><polygon class="cls-1" points="347.02 53.23 343.3 46.78 347.02 40.33 354.47 40.33 358.19 46.78 354.47 53.23 347.02 53.23"/><polygon class="cls-1" points="347.02 69.06 343.3 62.62 347.02 56.16 354.47 56.16 358.19 62.62 354.47 69.06 347.02 69.06"/><polygon class="cls-1" points="360.75 61.14 357.03 54.69 360.75 48.24 368.2 48.24 371.93 54.69 368.2 61.14 360.75 61.14"/><polygon class="cls-1" points="360.75 76.98 357.03 70.53 360.75 64.08 368.2 64.08 371.93 70.53 368.2 76.98 360.75 76.98"/><polygon class="cls-1" points="360.75 92.81 357.03 86.36 360.75 79.91 368.2 79.91 371.93 86.36 368.2 92.81 360.75 92.81"/></svg>