<svg id="Layer_1" data-name="Layer 1" xmlns="http://www.w3.org/2000/svg" viewBox="0 0 441.13 124.72"><defs><style>.cls-1{fill:#231f20;fill-rule:evenodd;}</style></defs><title>Artboard 1</title><polygon class="cls-1" points="39.12 29.48 35.39 23.03 39.12 16.57 46.56 16.57 50.29 23.03 46.56 29.48 39.12 29.48"/><polygon class="cls-1" points="39.12 45.31 35.39 38.86 39.12 32.41 46.56 32.41 50.29 38.86 46.56 45.31 39.12 45.31"/><polygon class="cls-1" points="39.12 61.14 35.39 54.69 39.12 48.24 46.56 48.24 50.29 54.69 46.56 61.14 39.12 61.14"/><polygon class="cls-1" points="39.12 76.98 35.39 70.53 39.12 64.08 46.56 64.08 50.29 70.53 46.56 76.98 39.12 76.98"/><polygon class="cls-1" points="39.12 92.81 35.39 86.36 39.12 79.91 46.56 79.91 50.29 86.36 46.56 92.81 39.12 92.81"/><polygon class="cls-1" points="52.85 53.23 49.12 46.78 52.85 40.33 60.29 40.33 64.02 46.78 60.29 53.23 52.85 53.23"/><polygon class="cls-1" points="52.85 69.06 49.12 62.62 52.85 56.16 60.29 56.16 64.02 62.62 60.29 69.06 52.85 69.06"/><polygon class="cls-1" points="66.58 61.14 62.86 54.69 66.58 48.24 74.03 48.24 77.75 54.69 74.03 61.14 66.58 61.14"/><polygon class="cls-1" points="66.58 76.98 62.86 70.53 66.58 64.08 74.03 64.08 77.75 70.53 74.03 76.98 66.58 76.98"/><polygon class="cls-1" points="66.58 92.81 62.86 86.36 66.58 79.91 74.03 79.91 77.75 86.36 74.03 92.81 66.58 92.81"/><polygon class="cls-1" points="94.04 61.14 90.32 54.69 94.04 48.24 101.49 48.24 105.22 54.69 101.49 61.14 94.04 61.14"/><polygon class="cls-1" points="94.04 76.98 90.32 70.53 94.04 64.08 101.49 64.08 105.22 70.53 101.49 76.98 94.04 76.98"/><polygon class="cls-1" points="94.04 92.81 90.32 86.36 94.04 79.91 101.49 79.91 105.22 86.36 101.49 92.81 94.04 92.81"/><polygon class="cls-1" points="107.77 53.23 104.05 46.78 107.77 40.33 115.22 40.33 118.95 46.78 115.22 53.23 107.77 53.23"/><polygon class="cls-1" points="107.77 84.9 104.05 78.45 107.77 72 115.22 72 118.95 78.45 115.22 84.9 107.77 84.9"/><polygon class="cls-1" points="107.77 100.73 104.05 94.28 107.77 87.83 115.22 87.83 118.95 94.28 115.22 100.73 107.77 100.73"/><polygon class="cls-1" points="121.51 61.14 117.78 54.69 121.51 48.24 128.96 48.24 132.68 54.69 128.96 61.14 121.51 61.14"/><polygon class="cls-1" points="121.51 76.98 117.78 70.53 121.51 64.08 128.96 64.08 132.68 70.53 128.96 76.98 121.51 76.98"/><polygon class="cls-1" points="121.51 108.64 117.78 102.2 121.51 95.75 128.96 95.75 132.68 102.2 128.96 108.64 121.51 108.64"/><polygon class="cls-1" points="148.97 61.14 145.25 54.69 148.97 48.24 156.42 48.24 160.14 54.69 156.42 61.14 148.97 61.14"/><polygon class="cls-1" points="148.97 92.81 145.25 86.36 148.97 79.91 156.42 79.91 160.14 86.36 156.42 92.81 148.97 92.81"/><polygon class="cls-1" points="162.7 69.06 158.98 62.62 162.7 56.16 170.15 56.16 173.87 62.62 170.15 69.06 162.7 69.06"/><polygon class="cls-1" points="162.7 84.9 158.98 78.45 162.7 72 170.15 72 173.87 78.45 170.15 84.9 162.7 84.9"/><polygon class="cls-1" points="176.44 61.14 172.71 54.69 176.44 48.24 183.88 48.24 187.61 54.69 183.88 61.14 176.44 61.14"/><polygon class="cls-1" points="176.44 92.81 172.71 86.36 176.44 79.91 183.88 79.91 187.61 86.36 183.88 92.81 176.44 92.81"/><polygon class="cls-1" points="203.9 45.31 200.18 38.86 203.9 32.41 211.35 32.41 215.07 38.86 211.35 45.31 203.9 45.31"/><polygon class="cls-1" points="203.9 76.98 200.18 70.53 203.9 64.08 211.35 64.08 215.07 70.53 211.35 76.98 203.9 76.98"/><polygon class="cls-1" points="203.9 92.81 200.18 86.36 203.9 79.91 211.35 79.91 215.07 86.36 211.35 92.81 203.9 92.81"/><polygon class="cls-1" points="217.63 53.23 213.91 46.78 217.63 40.33 225.08 40.33 228.8 46.78 225.08 53.23 217.63 53.23"/><polygon class="cls-1" points="217.63 69.06 213.91 62.62 217.63 56.16 225.08 56.16 228.8 62.62 225.08 69.06 217.63 69.06"/><polygon class="cls-1" points="217.63 100.73 213.91 94.28 217.63 87.83 225.08 87.83 228.8 94.28 225.08 100.73 217.63 100.73"/><polygon class="cls-1" points="231.36 61.14 227.64 54.69 231.36 48.24 238.81 48.24 242.54 54.69 238.81 61.14 231.36 61.14"/><polygon class="cls-1" points="231.36 76.98 227.64 70.53 231.36 64.08 238.81 64.08 242.54 70.53 238.81 76.98 231.36 76.98"/><polygon class="cls-1" points="231.36 92.81 227.64 86.36 231.36 79.91 238.81 79.91 242.54 86.36 238.81 92.81 231.36 92.81"/><polygon class="cls-1" points="258.83 61.14 255.1 54.69 258.83 48.24 266.28 48.24 270 54.69 266.28 61.14 258.83 61.14"/><polygon class="cls-1" points="258.83 76.98 255.1 70.53 258.83 64.08 266.28 64.08 270 70.53 266.28 76.98 258.83 76.98"/><polygon class="cls-1" points="258.83 108.64 255.1 102.2 258.83 95.75 266.28 95.75 270 102.2 266.28 108.64 258.83 108.64"/><polygon class="cls-1" points="272.56 53.23 268.83 46.78 272.56 40.33 280 40.33 283.73 46.78 280 53.23 272.56 53.23"/><polygon class="cls-1" points="272.56 84.9 268.83 78.45 272.56 72 280 72 283.73 78.45 280 84.9 272.56 84.9"/><polygon class="cls-1" points="272.56 100.73 268.83 94.28 272.56 87.83 280 87.83 283.73 94.28 280 100.73 272.56 100.73"/><polygon class="cls-1" points="286.29 45.31 282.57 38.86 286.29 32.41 293.74 32.41 297.46 38.86 293.74 45.31 286.29 45.31"/><polygon class="cls-1" points="286.29 61.14 282.57 54.69 286.29 48.24 293.74 48.24 297.46 54.69 293.74 61.14 286.29 61.14"/><polygon class="cls-1" points="286.29 76.98 282.57 70.53 286.29 64.08 293.74 64.08 297.46 70.53 293.74 76.98 286.29 76.98"/><polygon class="cls-1" points="286.29 92.81 282.57 86.36 286.29 79.91 293.74 79.91 297.46 86.36 293.74 92.81 286.29 92.81"/><polygon class="cls-1" points="313.75 61.14 310.03 54.69 313.75 48.24 321.2 48.24 324.93 54.69 321.2 61.14 313.75 61.14"/><polygon class="cls-1" points="313.75 76.98 310.03 70.53 313.75 64.08 321.2 64.08 324.93 70.53 321.2 76.98 313.75 76.98"/><polygon class="cls-1" points="313.75 92.81 310.03 86.36 313.75 79.91 321.2 79.91 324.93 86.36 321.2 92.81 313.75 92.81"/><polygon class="cls-1" points="327.49 53.23 323.76 46.78 327.49 40.33 334.93 40.33 338.66 46.78 334.93 53.23 327.49 53.23"/><polygon class="cls-1" points="327.49 84.9 323.76 78.45 327.49 72 334.93 72 338.66 78.45 334.93 84.9 327.49 84.9"/><polygon class="cls-1" points="327.49 100.73 323.76 94.28 327.49 87.83 334.93 87.83 338.66 94.28 334.93 100.73 327.49 100.73"/><polygon class="cls-1" points="341.22 61.14 337.5 54.69 341.22 48.24 348.67 48.24 352.39 54.69 348.67 61.14 341.22 61.14"/><polygon class="cls-1" points="341.22 76.98 337.5 70.53 341.22 64.08 348.67 64.08 352.39 70.53 348.67 76.98 341.22 76.98"/><polygon class="cls-1" points="341.22 92.81 337.5 86.36 341.22 79.91 348.67 79.91 352.39 86.36 348.67 92.81 341.22 92.81"/><polygon class="cls-1" points="368.68 61.14 364.96 54.69 368.68 48.24 376.13 48.24 379.86 54.69 376.13 61.14 368.68 61.14"/><polygon class="cls-1" points="368.68 76.98 364.96 70.53 368.68 64.08 376.13 64.08 379.86 70.53 376.13 76.98 368.68 76.98"/><polygon class="cls-1" points="368.68 92.81 364.96 86.36 368.68 79.91 376.13 79.91 379.86 86.36 376.13 92.81 368.68 92.81"/><polygon class="cls-1" points="382.41 53.23 378.69 46.78 382.41 40.33 389.86 40.33 393.58 46.78 389.86 53.23 382.41 53.23"/><polygon class="cls-1" points="382.41 69.06 378.69 62.62 382.41 56.16 389.86 56.16 393.58 62.62 389.86 69.06 382.41 69.06"/><polygon class="cls-1" points="396.15 61.14 392.42 54.69 396.15 48.24 403.6 48.24 407.32 54.69 403.6 61.14 396.15 61.14"/><polygon class="cls-1" points="396.15 76.98 392.42 70.53 396.15 64.08 403.6 64.08 407.32 70.53 403.6 76.98 396.15 76.98"/><polygon class="cls-1" points="396.15 92.81 392.42 86.36 396.15 79.91 403.6 79.91 407.32 86.36 403.6 92.81 396.15 92.81"/></svg>