<svg id="Layer_1" data-name="Layer 1" xmlns="http://www.w3.org/2000/svg" viewBox="0 0 380.42 105.88"><defs><style>.cls-1{fill:#231f20;fill-rule:evenodd;}</style></defs><title>hexagon</title><polygon class="cls-1" points="7.29 20.05 3.56 13.61 7.29 7.16 14.74 7.16 18.46 13.61 14.74 20.05 7.29 20.05"/><polygon class="cls-1" points="7.29 35.89 3.56 29.44 7.29 22.99 14.74 22.99 18.46 29.44 14.74 35.89 7.29 35.89"/><polygon class="cls-1" points="7.29 51.72 3.56 45.27 7.29 38.82 14.74 38.82 18.46 45.27 14.74 51.72 7.29 51.72"/><polygon class="cls-1" points="7.29 67.56 3.56 61.11 7.29 54.66 14.74 54.66 18.46 61.11 14.74 67.56 7.29 67.56"/><polygon class="cls-1" points="7.29 83.39 3.56 76.94 7.29 70.49 14.74 70.49 18.46 76.94 14.74 83.39 7.29 83.39"/><polygon class="cls-1" points="21.02 43.81 17.3 37.36 21.02 30.91 28.47 30.91 32.19 37.36 28.47 43.81 21.02 43.81"/><polygon class="cls-1" points="21.02 59.65 17.3 53.2 21.02 46.74 28.47 46.74 32.19 53.2 28.47 59.65 21.02 59.65"/><polygon class="cls-1" points="34.75 51.72 31.03 45.27 34.75 38.82 42.2 38.82 45.92 45.27 42.2 51.72 34.75 51.72"/><polygon class="cls-1" points="34.75 67.56 31.03 61.11 34.75 54.66 42.2 54.66 45.92 61.11 42.2 67.56 34.75 67.56"/><polygon class="cls-1" points="34.75 83.39 31.03 76.94 34.75 70.49 42.2 70.49 45.92 76.94 42.2 83.39 34.75 83.39"/><polygon class="cls-1" points="62.22 51.72 58.49 45.27 62.22 38.82 69.67 38.82 73.39 45.27 69.67 51.72 62.22 51.72"/><polygon class="cls-1" points="62.22 67.56 58.49 61.11 62.22 54.66 69.67 54.66 73.39 61.11 69.67 67.56 62.22 67.56"/><polygon class="cls-1" points="62.22 83.39 58.49 76.94 62.22 70.49 69.67 70.49 73.39 76.94 69.67 83.39 62.22 83.39"/><polygon class="cls-1" points="75.95 43.81 72.22 37.36 75.95 30.91 83.39 30.91 87.12 37.36 83.39 43.81 75.95 43.81"/><polygon class="cls-1" points="75.95 75.48 72.22 69.03 75.95 62.58 83.39 62.58 87.12 69.03 83.39 75.48 75.95 75.48"/><polygon class="cls-1" points="75.95 91.31 72.22 84.86 75.95 78.41 83.39 78.41 87.12 84.86 83.39 91.31 75.95 91.31"/><polygon class="cls-1" points="89.68 51.72 85.96 45.27 89.68 38.82 97.13 38.82 100.85 45.27 97.13 51.72 89.68 51.72"/><polygon class="cls-1" points="89.68 67.56 85.96 61.11 89.68 54.66 97.13 54.66 100.85 61.11 97.13 67.56 89.68 67.56"/><polygon class="cls-1" points="89.68 99.22 85.96 92.78 89.68 86.33 97.13 86.33 100.85 92.78 97.13 99.22 89.68 99.22"/><polygon class="cls-1" points="117.14 51.72 113.42 45.27 117.14 38.82 124.59 38.82 128.32 45.27 124.59 51.72 117.14 51.72"/><polygon class="cls-1" points="117.14 83.39 113.42 76.94 117.14 70.49 124.59 70.49 128.32 76.94 124.59 83.39 117.14 83.39"/><polygon class="cls-1" points="130.88 59.65 127.15 53.2 130.88 46.74 138.32 46.74 142.05 53.2 138.32 59.65 130.88 59.65"/><polygon class="cls-1" points="130.88 75.48 127.15 69.03 130.88 62.58 138.32 62.58 142.05 69.03 138.32 75.48 130.88 75.48"/><polygon class="cls-1" points="144.61 51.72 140.88 45.27 144.61 38.82 152.06 38.82 155.78 45.27 152.06 51.72 144.61 51.72"/><polygon class="cls-1" points="144.61 83.39 140.88 76.94 144.61 70.49 152.06 70.49 155.78 76.94 152.06 83.39 144.61 83.39"/><polygon class="cls-1" points="172.07 35.89 168.35 29.44 172.07 22.99 179.52 22.99 183.25 29.44 179.52 35.89 172.07 35.89"/><polygon class="cls-1" points="172.07 67.56 168.35 61.11 172.07 54.66 179.52 54.66 183.25 61.11 179.52 67.56 172.07 67.56"/><polygon class="cls-1" points="172.07 83.39 168.35 76.94 172.07 70.49 179.52 70.49 183.25 76.94 179.52 83.39 172.07 83.39"/><polygon class="cls-1" points="185.8 43.81 182.08 37.36 185.8 30.91 193.25 30.91 196.97 37.36 193.25 43.81 185.8 43.81"/><polygon class="cls-1" points="185.8 59.65 182.08 53.2 185.8 46.74 193.25 46.74 196.97 53.2 193.25 59.65 185.8 59.65"/><polygon class="cls-1" points="185.8 91.31 182.08 84.86 185.8 78.41 193.25 78.41 196.97 84.86 193.25 91.31 185.8 91.31"/><polygon class="cls-1" points="199.54 51.72 195.81 45.27 199.54 38.82 206.99 38.82 210.71 45.27 206.99 51.72 199.54 51.72"/><polygon class="cls-1" points="199.54 67.56 195.81 61.11 199.54 54.66 206.99 54.66 210.71 61.11 206.99 67.56 199.54 67.56"/><polygon class="cls-1" points="199.54 83.39 195.81 76.94 199.54 70.49 206.99 70.49 210.71 76.94 206.99 83.39 199.54 83.39"/><polygon class="cls-1" points="227 51.72 223.28 45.27 227 38.82 234.45 38.82 238.17 45.27 234.45 51.72 227 51.72"/><polygon class="cls-1" points="227 67.56 223.28 61.11 227 54.66 234.45 54.66 238.17 61.11 234.45 67.56 227 67.56"/><polygon class="cls-1" points="227 99.22 223.28 92.78 227 86.33 234.45 86.33 238.17 92.78 234.45 99.22 227 99.22"/><polygon class="cls-1" points="240.73 43.81 237 37.36 240.73 30.91 248.18 30.91 251.9 37.36 248.18 43.81 240.73 43.81"/><polygon class="cls-1" points="240.73 75.48 237 69.03 240.73 62.58 248.18 62.58 251.9 69.03 248.18 75.48 240.73 75.48"/><polygon class="cls-1" points="240.73 91.31 237 84.86 240.73 78.41 248.18 78.41 251.9 84.86 248.18 91.31 240.73 91.31"/><polygon class="cls-1" points="254.46 35.89 250.74 29.44 254.46 22.99 261.91 22.99 265.64 29.44 261.91 35.89 254.46 35.89"/><polygon class="cls-1" points="254.46 51.72 250.74 45.27 254.46 38.82 261.91 38.82 265.64 45.27 261.91 51.72 254.46 51.72"/><polygon class="cls-1" points="254.46 67.56 250.74 61.11 254.46 54.66 261.91 54.66 265.64 61.11 261.91 67.56 254.46 67.56"/><polygon class="cls-1" points="254.46 83.39 250.74 76.94 254.46 70.49 261.91 70.49 265.64 76.94 261.91 83.39 254.46 83.39"/><polygon class="cls-1" points="281.93 51.72 278.2 45.27 281.93 38.82 289.38 38.82 293.1 45.27 289.38 51.72 281.93 51.72"/><polygon class="cls-1" points="281.93 67.56 278.2 61.11 281.93 54.66 289.38 54.66 293.1 61.11 289.38 67.56 281.93 67.56"/><polygon class="cls-1" points="281.93 83.39 278.2 76.94 281.93 70.49 289.38 70.49 293.1 76.94 289.38 83.39 281.93 83.39"/><polygon class="cls-1" points="295.66 43.81 291.93 37.36 295.66 30.91 303.11 30.91 306.83 37.36 303.11 43.81 295.66 43.81"/><polygon class="cls-1" points="295.66 75.48 291.93 69.03 295.66 62.58 303.11 62.58 306.83 69.03 303.11 75.48 295.66 75.48"/><polygon class="cls-1" points="295.66 91.31 291.93 84.86 295.66 78.41 303.11 78.41 306.83 84.86 303.11 91.31 295.66 91.31"/><polygon class="cls-1" points="309.39 51.72 305.67 45.27 309.39 38.82 316.84 38.82 320.56 45.27 316.84 51.72 309.39 51.72"/><polygon class="cls-1" points="309.39 67.56 305.67 61.11 309.39 54.66 316.84 54.66 320.56 61.11 316.84 67.56 309.39 67.56"/><polygon class="cls-1" points="309.39 83.39 305.67 76.94 309.39 70.49 316.84 70.49 320.56 76.94 316.84 83.39 309.39 83.39"/><polygon class="cls-1" points="336.86 51.72 333.13 45.27 336.86 38.82 344.3 38.82 348.03 45.27 344.3 51.72 336.86 51.72"/><polygon class="cls-1" points="336.86 67.56 333.13 61.11 336.86 54.66 344.3 54.66 348.03 61.11 344.3 67.56 336.86 67.56"/><polygon class="cls-1" points="336.86 83.39 333.13 76.94 336.86 70.49 344.3 70.49 348.03 76.94 344.3 83.39 336.86 83.39"/><polygon class="cls-1" points="350.59 43.81 346.86 37.36 350.59 30.91 358.03 30.91 361.76 37.36 358.03 43.81 350.59 43.81"/><polygon class="cls-1" points="350.59 59.65 346.86 53.2 350.59 46.74 358.03 46.74 361.76 53.2 358.03 59.65 350.59 59.65"/><polygon class="cls-1" points="364.32 51.72 360.6 45.27 364.32 38.82 371.77 38.82 375.49 45.27 371.77 51.72 364.32 51.72"/><polygon class="cls-1" points="364.32 67.56 360.6 61.11 364.32 54.66 371.77 54.66 375.49 61.11 371.77 67.56 364.32 67.56"/><polygon class="cls-1" points="364.32 83.39 360.6 76.94 364.32 70.49 371.77 70.49 375.49 76.94 371.77 83.39 364.32 83.39"/></svg>