<svg id="Layer_1" data-name="Layer 1" xmlns="http://www.w3.org/2000/svg" viewBox="0 0 512 512"><title>instagram</title><path d="M261,149.07c32.57,0,36.43.12,49.29.71,11.89.54,18.35,2.53,22.65,4.2a40.4,40.4,0,0,1,23.15,23.15c1.67,4.3,3.66,10.76,4.2,22.65.59,12.86.71,16.72.71,49.29s-.12,36.43-.71,49.29c-.54,11.89-2.53,18.35-4.2,22.65a40.4,40.4,0,0,1-23.15,23.15c-4.3,1.67-10.76,3.66-22.65,4.2-12.86.59-16.72.71-49.29.71s-36.43-.12-49.29-.71c-11.89-.54-18.35-2.53-22.65-4.2A40.4,40.4,0,0,1,165.91,321c-1.67-4.3-3.66-10.76-4.2-22.65-.59-12.86-.71-16.72-.71-49.29s.12-36.43.71-49.29c.54-11.89,2.53-18.35,4.2-22.65A40.4,40.4,0,0,1,189.06,154c4.3-1.67,10.76-3.66,22.65-4.2,12.86-.59,16.72-.71,49.29-.71m0-22c-33.13,0-37.28.14-50.29.73s-21.85,2.65-29.61,5.67a62.37,62.37,0,0,0-35.68,35.68c-3,7.76-5.08,16.63-5.67,29.61s-.73,17.16-.73,50.29.14,37.28.73,50.29,2.65,21.85,5.67,29.61a62.37,62.37,0,0,0,35.68,35.68c7.76,3,16.63,5.08,29.61,5.67s17.16.73,50.29.73,37.28-.14,50.29-.73,21.85-2.65,29.61-5.67A62.37,62.37,0,0,0,376.58,329c3-7.76,5.08-16.63,5.67-29.61s.73-17.16.73-50.29-.14-37.28-.73-50.29-2.65-21.85-5.67-29.61a62.37,62.37,0,0,0-35.68-35.68c-7.76-3-16.63-5.08-29.61-5.67s-17.16-.73-50.29-.73Z"/><path d="M261,186.43a62.64,62.64,0,1,0,62.64,62.64A62.64,62.64,0,0,0,261,186.43Zm0,103.3a40.66,40.66,0,1,1,40.66-40.66A40.66,40.66,0,0,1,261,289.73Z"/><circle cx="326.12" cy="183.96" r="14.64"/></svg>