<svg id="Layer_1" data-name="Layer 1" xmlns="http://www.w3.org/2000/svg" viewBox="0 0 512 512"><defs><style>.cls-1{fill:#fff;}.cls-2{fill:#020202;}</style></defs><title>snapchat</title><path class="cls-1" d="M257.52,368.77c-.62,0-1.23,0-1.84,0h0c-.39,0-.79,0-1.2,0-14.24,0-23.37-6.46-32.21-12.71-6.1-4.31-11.86-8.38-18.64-9.51a60.18,60.18,0,0,0-9.79-.83,66.94,66.94,0,0,0-13.56,1.53,29.69,29.69,0,0,1-5.06.73,3.18,3.18,0,0,1-3.51-2.51c-.56-1.92-1-3.77-1.36-5.57-1-4.62-1.73-7.46-3.66-7.76-22.58-3.49-29-8.24-30.48-11.62a4.35,4.35,0,0,1-.35-1.44,2.54,2.54,0,0,1,2.13-2.65c34.71-5.72,50.27-41.19,50.92-42.69l.06-.12c2.12-4.3,2.54-8,1.24-11.1-2.38-5.61-10.15-8.08-15.29-9.71-1.26-.4-2.45-.77-3.39-1.15-10.26-4.06-11.11-8.22-10.71-10.34.69-3.62,5.52-6.14,9.43-6.14a6.61,6.61,0,0,1,2.81.56A29.9,29.9,0,0,0,185.41,239c5,0,7.12-2.08,7.39-2.36-.13-2.35-.28-4.8-.44-7.33-1-16.41-2.31-36.8,2.88-48.44,15.56-34.89,48.55-37.6,58.29-37.6l4.27,0h.58c9.76,0,42.83,2.72,58.4,37.62,5.19,11.64,3.91,32.05,2.87,48.45l0,.71c-.14,2.28-.28,4.5-.4,6.63.25.25,2.24,2.17,6.74,2.34h0a30.94,30.94,0,0,0,11.65-3.24,8.79,8.79,0,0,1,3.62-.71,11.06,11.06,0,0,1,4.16.79l.07,0c3.49,1.24,5.77,3.68,5.82,6.23s-1.79,6-10.79,9.58c-.93.37-2.13.75-3.39,1.15-5.15,1.63-12.91,4.1-15.29,9.71-1.3,3.06-.88,6.8,1.24,11.1l.06.13c.65,1.5,16.2,37,50.92,42.69a2.55,2.55,0,0,1,2.13,2.65,4.26,4.26,0,0,1-.36,1.45c-1.43,3.35-7.89,8.1-30.47,11.59-1.84.28-2.56,2.69-3.66,7.73-.4,1.83-.81,3.64-1.36,5.53a3,3,0,0,1-3.23,2.41h-.28a28.27,28.27,0,0,1-5.05-.64,67.42,67.42,0,0,0-13.57-1.44,60.25,60.25,0,0,0-9.79.83c-6.78,1.13-12.53,5.19-18.62,9.5C280.89,362.31,271.76,368.77,257.52,368.77Z"/><path class="cls-2" d="M258.37,145.77c9.24,0,41.07,2.48,56.08,36.11,4.94,11.07,3.67,31.13,2.66,47.25-.16,2.56-.32,5-.44,7.4l-.06,1,.68.76c.27.31,2.84,3,8.55,3.21H326A33.35,33.35,0,0,0,338.68,238a6.15,6.15,0,0,1,2.54-.47,8.52,8.52,0,0,1,3.21.61l.14.06c2.42.85,4.13,2.45,4.16,3.9,0,.82-.6,3.77-9.18,7.16-.84.33-1.94.68-3.22,1.09-5.59,1.78-14,4.45-16.87,11.14-1.6,3.78-1.17,8.22,1.3,13.23,1,2.37,17,38.29,52.84,44.2a1.65,1.65,0,0,1-.15.57c-.61,1.43-4.48,6.38-28.53,10.09-3.77.58-4.69,4.8-5.76,9.7-.38,1.75-.78,3.52-1.32,5.36-.16.55-.19.59-.79.59h-.28a26.63,26.63,0,0,1-4.57-.59,70.42,70.42,0,0,0-14.05-1.48,62.64,62.64,0,0,0-10.21.86c-7.36,1.23-13.35,5.46-19.69,9.94-8.51,6-17.31,12.24-30.74,12.24-.58,0-1.16,0-1.73,0h-.3c-.33,0-.66,0-1,0-13.43,0-22.23-6.22-30.74-12.24-6.34-4.48-12.33-8.72-19.69-9.94a62.65,62.65,0,0,0-10.21-.86,69.29,69.29,0,0,0-14.05,1.58,28.52,28.52,0,0,1-4.57.68c-.87,0-.89-.05-1.07-.68-.54-1.83-.93-3.65-1.32-5.4-1.07-4.91-2-9.15-5.76-9.73-24.05-3.71-27.92-8.67-28.53-10.1a1.66,1.66,0,0,1-.15-.58c35.88-5.91,51.82-41.83,52.84-44.2,2.46-5,2.9-9.45,1.3-13.22-2.84-6.69-11.28-9.37-16.87-11.15-1.28-.4-2.39-.75-3.22-1.09-7.25-2.86-9.48-5.75-9.15-7.5.38-2,3.88-4.07,6.93-4.07A4.15,4.15,0,0,1,172,238c5,2.32,9.48,3.5,13.44,3.5,6.24,0,9-2.9,9.31-3.23l.68-.76-.06-1c-.13-2.37-.28-4.84-.44-7.4-1-16.12-2.28-36.17,2.66-47.24,14.94-33.51,46.62-36.09,56-36.09l4.29,0h.55m0-5.09h-.61l-4.25,0c-10.12,0-44.43,2.82-60.61,39.11-5.44,12.21-4.14,32.94-3.09,49.6.12,2,.25,4,.37,6a9.78,9.78,0,0,1-4.77,1,27.42,27.42,0,0,1-11.28-3,9.11,9.11,0,0,0-3.89-.8c-5,0-11,3.29-11.93,8.2-.67,3.54.91,8.69,12.27,13.18,1,.41,2.26.8,3.56,1.21,4.7,1.49,11.79,3.74,13.72,8.28,1,2.35.6,5.38-1.18,9l-.11.25c-.62,1.45-15.64,35.69-49,41.18a5.09,5.09,0,0,0-4.25,5.3,6.84,6.84,0,0,0,.54,2.29c2.5,5.85,13.06,10.14,32.28,13.12.64.87,1.31,3.94,1.72,5.81s.82,3.75,1.41,5.76a5.69,5.69,0,0,0,6,4.33,30.94,30.94,0,0,0,5.54-.78,64.79,64.79,0,0,1,13.08-1.48,57.59,57.59,0,0,1,9.38.79c6.2,1,11.47,4.76,17.58,9.07,8.74,6.18,18.64,13.18,33.68,13.18.41,0,.83,0,1.24,0s1.12,0,1.8,0c15,0,24.95-7,33.68-13.17,6.12-4.32,11.38-8,17.59-9.08a57.49,57.49,0,0,1,9.37-.79,65.2,65.2,0,0,1,13.08,1.39,30.71,30.71,0,0,0,5.54.68h.28a5.53,5.53,0,0,0,5.67-4.25c.58-2,1-3.82,1.41-5.7s1.07-4.92,1.71-5.78c19.23-3,29.78-7.27,32.28-13.09a6.77,6.77,0,0,0,.55-2.3,5.09,5.09,0,0,0-4.25-5.3c-33.36-5.5-48.37-39.73-49-41.18l-.11-.25c-1.78-3.61-2.18-6.63-1.18-9,1.92-4.54,9-6.79,13.71-8.28,1.31-.42,2.55-.81,3.56-1.21,8.32-3.28,12.49-7.32,12.4-12-.07-3.67-2.93-6.94-7.47-8.56h0a13.65,13.65,0,0,0-5.12-1,11.32,11.32,0,0,0-4.7,1,28.63,28.63,0,0,1-10.58,3,9.39,9.39,0,0,1-4.12-1c.1-1.69.2-3.43.32-5.25l0-.71c1.05-16.67,2.36-37.42-3.09-49.64-16.19-36.3-50.57-39.13-60.72-39.13Z"/></svg>